<svg aria-hidden="true" style="position: absolute; width: 0; height: 0; overflow: hidden;" version="1.1" xmlns="http://www.w3.org/2000/svg" xmlns:xlink="http://www.w3.org/1999/xlink">
<defs>
<symbol id="icon-facebook" viewBox="0 0 33 32">
<path d="M0.692 16.269c0.001 3.717 1.333 7.312 3.757 10.139s5.781 4.7 9.468 5.282v-10.91h-3.977v-4.511h3.982v-3.434c-0.088-0.804 0.003-1.617 0.266-2.382s0.692-1.463 1.257-2.044c0.565-0.581 1.251-1.031 2.010-1.319s1.572-0.405 2.382-0.344c1.176 0.019 2.351 0.123 3.511 0.312v3.838h-1.981c-0.337-0.044-0.679-0.012-1.002 0.094s-0.617 0.282-0.862 0.516-0.434 0.52-0.553 0.837c-0.119 0.317-0.165 0.656-0.135 0.993v2.932h4.344l-0.694 4.513h-3.649v10.908c2.959-0.466 5.722-1.766 7.962-3.747s3.863-4.559 4.677-7.43 0.785-5.914-0.084-8.769c-0.869-2.855-2.541-5.402-4.818-7.34s-5.065-3.185-8.032-3.595c-2.967-0.409-5.99 0.036-8.711 1.285s-5.025 3.247-6.641 5.759c-1.615 2.512-2.474 5.433-2.475 8.416z"></path>
</symbol>
<symbol id="icon-linkedin" viewBox="0 0 33 32">
<path d="M29.914 0h-27.382c-1.309 0-2.372 1.033-2.372 2.306v27.385c0 1.274 1.063 2.309 2.372 2.309h27.382c1.31 0 2.38-1.035 2.38-2.309v-27.385c0-1.272-1.070-2.306-2.38-2.306zM9.691 27.268h-4.768v-15.271h4.768v15.271zM7.307 9.91c-0.363 0-0.722-0.071-1.058-0.21s-0.64-0.341-0.896-0.597c-0.257-0.256-0.46-0.559-0.599-0.893s-0.21-0.692-0.21-1.053c0-0.73 0.291-1.429 0.809-1.945s1.221-0.806 1.953-0.806c0.733 0 1.435 0.29 1.953 0.806s0.809 1.216 0.809 1.945c0 0.73-0.291 1.43-0.809 1.946s-1.22 0.806-1.953 0.807zM27.541 27.268h-4.761v-7.426c0-1.772-0.035-4.049-2.477-4.049-2.481 0-2.859 1.929-2.859 3.921v7.555h-4.764v-15.271h4.572v2.085h0.065c0.636-1.2 2.191-2.466 4.51-2.466 4.823 0 5.714 3.162 5.714 7.275l-0 8.376z"></path>
</symbol>
<symbol id="icon-twitter" viewBox="0 0 40 32">
<path d="M39.445 3.925c-1.067 1.584-2.418 2.994-3.987 4.122 0.022 0.325 0.022 0.672 0.022 1.020 0 10.521-8.038 22.648-22.721 22.648-4.509 0-8.714-1.323-12.265-3.579 0.632 0.065 1.264 0.108 1.917 0.108 3.747 0 7.189-1.28 9.912-3.406-1.666-0.034-3.279-0.586-4.615-1.578s-2.327-2.374-2.835-3.954c0.479 0.087 0.98 0.152 1.503 0.152 0.719 0 1.438-0.108 2.091-0.282-1.807-0.369-3.43-1.348-4.597-2.77s-1.805-3.202-1.807-5.039v-0.087c1.089 0.586 2.309 0.954 3.616 0.998-1.094-0.731-1.99-1.719-2.61-2.877s-0.943-2.45-0.941-3.762c0-1.453 0.392-2.82 1.089-3.992 3.943 4.816 9.825 7.983 16.469 8.309-0.131-0.586-0.218-1.193-0.218-1.822 0.006-2.108 0.851-4.127 2.349-5.616s3.529-2.324 5.645-2.324c2.309 0 4.379 0.955 5.838 2.516 1.808-0.369 3.529-1.020 5.076-1.931-0.61 1.844-1.873 3.406-3.529 4.382 1.587-0.173 3.138-0.59 4.596-1.237z"></path>
</symbol>
<symbol id="icon-bars" viewBox="0 0 24 28">
<path d="M24 21v2c0 0.547-0.453 1-1 1h-22c-0.547 0-1-0.453-1-1v-2c0-0.547 0.453-1 1-1h22c0.547 0 1 0.453 1 1zM24 13v2c0 0.547-0.453 1-1 1h-22c-0.547 0-1-0.453-1-1v-2c0-0.547 0.453-1 1-1h22c0.547 0 1 0.453 1 1zM24 5v2c0 0.547-0.453 1-1 1h-22c-0.547 0-1-0.453-1-1v-2c0-0.547 0.453-1 1-1h22c0.547 0 1 0.453 1 1z"></path>
</symbol>
<symbol id="icon-close" viewBox="0 0 32 32">
<path d="M32 3.223l-3.223-3.223-12.777 12.777-12.777-12.777-3.223 3.223 12.777 12.777-12.777 12.777 3.223 3.223 12.777-12.777 12.777 12.777 3.223-3.223-12.777-12.777 12.777-12.777z"></path>
</symbol>
</defs>
</svg>
